<svg
        width="433"
        height="100"
        viewBox="0 0 433 100"
        fill="none"
        xmlns="http://www.w3.org/2000/svg"
>
    <path
            d="M58.9859 66.3614L23.3987 73.424L0.174332 78.1031V19.3064L58.9859 66.3614Z"
            fill="url(#paint0_linear_173_991)"
    />
    <path
            d="M58.9859 66.3614L35.6732 0.590332L0.174332 19.3064L58.9859 66.3614Z"
            fill="#F9B41E"
    />
    <path
            d="M58.9859 66.3613L35.4966 99.0261L24.0169 73.3356L58.9859 66.3613Z"
            fill="#E18A26"
    />
    <path
            opacity="0.4"
            d="M35.6732 0.590332L0.174332 19.3064L35.4966 99.0262L35.6732 0.590332Z"
            fill="url(#paint1_linear_173_991)"
    />
    <path
            d="M35.4966 99.0261L0.174332 78.103L24.1052 73.2474L35.4966 99.0261Z"
            fill="#D57428"
    />
    <path
            d="M123.165 69.6349C121.433 80.4084 114.121 90.6048 97.8602 90.6048C77.751 90.6048 70.5347 75.9836 70.5347 57.8033C70.5347 39.9116 79.7715 25.1942 98.3413 25.1942C115.564 25.1942 122.107 36.1601 122.78 45.9717H110.08C108.733 40.7773 106.712 35.5829 97.9565 35.5829C87.3726 35.5829 83.8126 46.2602 83.8126 57.8033C83.8126 69.9235 87.1802 80.3123 98.0527 80.3123C106.616 80.3123 109.118 74.3483 110.272 69.6349H123.165Z"
            fill="white"
    />
    <path
            d="M130.093 33.7552V22.116H142.697V33.7552H130.093ZM130.093 41.5468H142.697V89.6429H130.093V41.5468Z"
            fill="white"
    />
    <path
            d="M148.47 41.5468H155.301V28.5609H167.81V41.5468H176.373V51.3584H167.81V76.0798C167.81 79.3503 168.676 80.697 172.524 80.697C173.679 80.697 174.064 80.697 175.411 80.5046V89.1619C172.909 90.0276 169.349 90.1238 167.713 90.1238C158.38 90.1238 155.301 86.3723 155.301 77.5227V51.4546H148.47V41.5468Z"
            fill="white"
    />
    <path
            d="M182.338 57.8994C182.338 50.0117 182.338 44.9135 182.146 41.5468H194.462C194.75 43.663 194.846 46.7411 194.846 50.0117C196.386 45.9716 200.716 40.7772 209.471 40.7772V53.5708C199.561 53.3784 195.039 56.7451 195.039 67.8072V89.6428H182.338V57.8994Z"
            fill="white"
    />
    <path
            d="M215.822 33.7552V22.116H228.426V33.7552H215.822ZM215.822 41.5468H228.426V89.6429H215.822V41.5468Z"
            fill="white"
    />
    <path
            d="M237.567 56.6489C237.567 46.7411 237.47 43.7592 237.374 41.6429H249.69C249.882 42.6049 250.171 45.683 250.171 47.8954C252.095 44.1439 256.714 40.7772 263.545 40.7772C273.648 40.7772 278.747 47.3183 278.747 58.3804V89.8352H266.047V60.5928C266.047 55.1099 264.7 51.0698 258.734 51.0698C252.961 51.0698 250.171 54.4365 250.171 62.9014V89.739H237.567V56.6489Z"
            fill="white"
    />
    <path
            d="M297.028 68.4806C297.028 74.3483 299.241 80.697 306.458 80.697C312.231 80.697 313.963 77.0417 314.732 74.9255H327.048C324.739 82.9094 319.062 90.5086 306.073 90.5086C290.774 90.5086 284.328 80.0237 284.328 65.691C284.328 53.7632 290.293 40.5849 306.65 40.5849C322.814 40.5849 327.625 52.128 327.625 64.5367C327.625 65.2101 327.529 67.7111 327.433 68.4806H297.028ZM315.31 60.2081C315.117 54.8213 312.904 50.1079 306.361 50.1079C299.241 50.1079 297.413 55.9756 297.125 60.2081H315.31Z"
            fill="white"
    />
    <path
            d="M386.702 57.1298C386.702 75.5987 378.235 90.7009 359.954 90.7009C342.924 90.7009 333.879 76.9454 333.879 57.226C333.879 40.0077 342.635 24.5207 360.724 24.5207C377.754 24.4245 386.702 38.0838 386.702 57.1298ZM340.133 57.0337C340.133 72.9054 346.676 85.3142 360.339 85.3142C374.29 85.3142 380.544 73.0016 380.544 57.226C380.544 41.4505 374.098 29.9075 360.531 29.9075C346.388 29.9075 340.133 42.1239 340.133 57.0337Z"
            fill="white"
    />
    <path
            d="M396.901 71.8473C398.248 81.0817 404.598 85.218 412.488 85.218C420.378 85.218 426.343 80.9855 426.343 72.9054C426.343 65.3062 423.072 62.0357 411.045 58.188C398.152 54.1479 392.956 49.9155 392.956 40.681C392.956 31.158 399.98 24.5208 411.911 24.5208C425.189 24.5208 430.866 32.6971 431.539 41.3544H425.381C424.323 34.14 419.993 29.7151 411.622 29.7151C403.444 29.7151 399.307 33.7552 399.307 40.2001C399.307 46.6449 402.77 49.4345 413.45 52.7051C429.134 57.4185 432.79 63.3824 432.79 72.1359C432.79 82.9094 425.285 90.22 412.296 90.22C399.21 90.22 391.802 83.1018 390.84 71.7511H396.901V71.8473Z"
            fill="white"
    />
    <defs>
        <linearGradient
                id="paint0_linear_173_991"
                x1="42.6364"
                y1="27.4323"
                x2="4.61193"
                y2="72.2438"
                gradientUnits="userSpaceOnUse"
        >
            <stop offset="0.1723" stop-color="#F7EF79" />
            <stop offset="0.5313" stop-color="#F9B41E" />
            <stop offset="0.6042" stop-color="#F8AC24" />
            <stop offset="0.7357" stop-color="#F6962E" />
            <stop offset="0.8689" stop-color="#F47C36" />
        </linearGradient>
        <linearGradient
                id="paint1_linear_173_991"
                x1="0.174332"
                y1="49.8208"
                x2="35.6953"
                y2="49.8208"
                gradientUnits="userSpaceOnUse"
        >
            <stop offset="0.1723" stop-color="#FBF8CD" />
            <stop offset="0.3223" stop-color="#FAF6BA" />
            <stop offset="0.709" stop-color="#F8F18C" />
            <stop offset="0.8942" stop-color="#F7EF79" />
        </linearGradient>
    </defs>
</svg>
