<svg viewBox="0 0 433 100" fill="none" xmlns="http://www.w3.org/2000/svg">
    <path d="M58.9859 66.4936L23.3987 73.5563L0.174332 78.2353V19.4387L58.9859 66.4936Z" fill="url(#paint0_linear_173_959)"/>
    <path d="M58.9859 66.4936L35.6732 0.722595L0.174332 19.4386L58.9859 66.4936Z" fill="#F9B41E"/>
    <path d="M58.9859 66.4935L35.4966 99.1583L24.0169 73.4679L58.9859 66.4935Z" fill="#E18A26"/>
    <path opacity="0.4" d="M35.6732 0.722595L0.174332 19.4386L35.4966 99.1584L35.6732 0.722595Z" fill="url(#paint1_linear_173_959)"/>
    <path d="M35.4966 99.1584L0.174332 78.2353L24.1052 73.3797L35.4966 99.1584Z" fill="#D57428"/>
    <path d="M123.165 69.7672C121.433 80.5407 114.121 90.7371 97.8602 90.7371C77.751 90.7371 70.5347 76.1159 70.5347 57.9356C70.5347 40.0438 79.7715 25.3264 98.3413 25.3264C115.564 25.3264 122.107 36.2923 122.78 46.1039H110.08C108.733 40.9095 106.712 35.7152 97.9565 35.7152C87.3726 35.7152 83.8126 46.3925 83.8126 57.9356C83.8126 70.0558 87.1802 80.4445 98.0527 80.4445C106.616 80.4445 109.118 74.4806 110.272 69.7672H123.165Z" fill="black"/>
    <path d="M130.093 33.8875V22.2482H142.697V33.8875H130.093ZM130.093 41.679H142.697V89.7751H130.093V41.679Z" fill="black"/>
    <path d="M148.47 41.6791H155.301V28.6931H167.81V41.6791H176.373V51.4907H167.81V76.212C167.81 79.4826 168.676 80.8293 172.524 80.8293C173.679 80.8293 174.064 80.8293 175.411 80.6369V89.2942C172.909 90.1599 169.349 90.2561 167.713 90.2561C158.38 90.2561 155.301 86.5046 155.301 77.6549V51.5869H148.47V41.6791Z" fill="black"/>
    <path d="M182.338 58.0317C182.338 50.1439 182.338 45.0457 182.146 41.679H194.462C194.75 43.7952 194.846 46.8734 194.846 50.1439C196.386 46.1039 200.716 40.9095 209.471 40.9095V53.703C199.561 53.5107 195.039 56.8774 195.039 67.9395V89.7751H182.338V58.0317Z" fill="black"/>
    <path d="M215.822 33.8875V22.2482H228.426V33.8875H215.822ZM215.822 41.679H228.426V89.7751H215.822V41.679Z" fill="black"/>
    <path d="M237.567 56.7812C237.567 46.8734 237.47 43.8914 237.374 41.7752H249.69C249.882 42.7371 250.171 45.8153 250.171 48.0277C252.095 44.2762 256.714 40.9095 263.545 40.9095C273.648 40.9095 278.747 47.4506 278.747 58.5126V89.9675H266.047V60.7251C266.047 55.2421 264.7 51.202 258.734 51.202C252.961 51.202 250.171 54.5688 250.171 63.0337V89.8713H237.567V56.7812Z" fill="black"/>
    <path d="M297.028 68.6129C297.028 74.4806 299.241 80.8293 306.458 80.8293C312.231 80.8293 313.963 77.174 314.732 75.0578H327.048C324.739 83.0417 319.062 90.6409 306.073 90.6409C290.774 90.6409 284.328 80.1559 284.328 65.8233C284.328 53.8955 290.293 40.7172 306.65 40.7172C322.814 40.7172 327.625 52.2602 327.625 64.669C327.625 65.3424 327.529 67.8433 327.433 68.6129H297.028ZM315.31 60.3404C315.117 54.9536 312.904 50.2402 306.361 50.2402C299.241 50.2402 297.413 56.1079 297.125 60.3404H315.31Z" fill="black"/>
    <path d="M386.702 57.2621C386.702 75.731 378.235 90.8332 359.954 90.8332C342.924 90.8332 333.879 77.0777 333.879 57.3583C333.879 40.1399 342.635 24.653 360.724 24.653C377.754 24.5568 386.702 38.2161 386.702 57.2621ZM340.133 57.1659C340.133 73.0376 346.676 85.4464 360.339 85.4464C374.29 85.4464 380.544 73.1338 380.544 57.3583C380.544 41.5828 374.098 30.0397 360.531 30.0397C346.388 30.0397 340.133 42.2561 340.133 57.1659Z" fill="black"/>
    <path d="M396.901 71.9796C398.248 81.214 404.598 85.3503 412.488 85.3503C420.378 85.3503 426.343 81.1178 426.343 73.0377C426.343 65.4385 423.072 62.168 411.045 58.3203C398.152 54.2802 392.956 50.0477 392.956 40.8133C392.956 31.2903 399.98 24.653 411.911 24.653C425.189 24.653 430.866 32.8293 431.539 41.4866H425.381C424.323 34.2722 419.993 29.8474 411.622 29.8474C403.444 29.8474 399.307 33.8875 399.307 40.3323C399.307 46.7772 402.77 49.5668 413.45 52.8373C429.134 57.5507 432.79 63.5147 432.79 72.2681C432.79 83.0417 425.285 90.3523 412.296 90.3523C399.21 90.3523 391.802 83.234 390.84 71.8834H396.901V71.9796Z" fill="black"/>
    <defs>
        <linearGradient id="paint0_linear_173_959" x1="42.6364" y1="27.5645" x2="4.61193" y2="72.3761" gradientUnits="userSpaceOnUse">
            <stop offset="0.1723" stop-color="#F7EF79"/>
            <stop offset="0.5313" stop-color="#F9B41E"/>
            <stop offset="0.6042" stop-color="#F8AC24"/>
            <stop offset="0.7357" stop-color="#F6962E"/>
            <stop offset="0.8689" stop-color="#F47C36"/>
        </linearGradient>
        <linearGradient id="paint1_linear_173_959" x1="0.174332" y1="49.953" x2="35.6953" y2="49.953" gradientUnits="userSpaceOnUse">
            <stop offset="0.1723" stop-color="#FBF8CD"/>
            <stop offset="0.3223" stop-color="#FAF6BA"/>
            <stop offset="0.709" stop-color="#F8F18C"/>
            <stop offset="0.8942" stop-color="#F7EF79"/>
        </linearGradient>
    </defs>
</svg>
