<svg version="1.1" id="Layer_1" xmlns="http://www.w3.org/2000/svg" xmlns:xlink="http://www.w3.org/1999/xlink" x="0px" y="0px"
	 width="100%" viewBox="0 0 116 153" enable-background="new 0 0 116 153" xml:space="preserve">
<path fill="currentColor" opacity="1.000000" stroke="none" 
	d="
M50.000000,0.999999 
	C55.354931,1.000000 60.709858,1.000000 66.253799,1.342889 
	C71.969490,3.457982 77.840805,4.545691 82.961685,7.123910 
	C102.473396,16.947504 113.073471,33.034054 115.073196,54.822548 
	C115.174950,55.931309 116.333496,56.943073 117.000000,58.000000 
	C117.000000,58.444447 117.000000,58.888889 116.639771,59.402401 
	C115.865295,60.537262 115.118286,61.593624 115.087769,62.670296 
	C114.743805,74.805832 109.164665,84.819412 102.525581,94.468224 
	C92.857178,108.519646 83.576927,122.849350 73.548264,136.636398 
	C69.285187,142.497131 66.785820,150.066101 59.407883,153.357773 
	C59.605255,153.571854 59.802628,153.785919 60.000000,154.000000 
	C59.555553,154.000000 59.111111,154.000000 58.611435,153.706024 
	C52.570038,151.054688 50.292461,145.318985 46.945358,140.585434 
	C37.310425,126.959457 27.539310,113.423172 18.211304,99.588943 
	C11.305545,89.347130 4.165724,79.087364 2.909041,66.173882 
	C2.833215,65.394707 1.661688,64.722160 1.000000,64.000000 
	C1.000000,60.307091 1.000000,56.614182 1.304264,52.801125 
	C2.074032,51.704407 2.775371,50.772251 2.968940,49.744469 
	C5.156316,38.130276 9.777081,27.809315 18.189140,19.252443 
	C26.686193,10.609115 36.618217,4.882257 48.652809,2.901781 
	C49.191605,2.813114 49.554939,1.658247 50.000000,0.999999 
M63.470768,77.027702 
	C68.408577,70.731384 73.346390,64.435074 78.284203,58.138752 
	C78.139839,57.589096 77.995483,57.039436 77.851120,56.489777 
	C72.651657,56.215611 67.452194,55.941448 61.552559,55.630363 
	C64.087196,46.311104 66.474937,37.531952 68.862686,28.752798 
	C68.240067,28.540607 67.617455,28.328415 66.994843,28.116222 
	C63.666584,32.567482 60.400772,37.067162 56.995350,41.458588 
	C51.959007,47.953144 46.758503,54.321457 41.789818,60.866447 
	C40.889812,62.051975 40.767086,63.827583 40.285519,65.330772 
	C41.638474,65.568138 42.987167,65.976326 44.345200,66.010208 
	C48.118298,66.104347 51.895275,66.042877 56.482239,66.042877 
	C53.804058,75.672585 51.329308,84.570831 48.854561,93.469070 
	C49.439198,93.737427 50.023834,94.005791 50.608471,94.274147 
	C54.728409,88.703087 58.848347,83.132027 63.470768,77.027702 
z"/>
<path fill="currentColor" opacity="1.000000" stroke="none" 
	d="
M60.468658,154.000000 
	C59.802628,153.785919 59.605255,153.571854 59.407883,153.357773 
	C66.785820,150.066101 69.285187,142.497131 73.548264,136.636398 
	C83.576927,122.849350 92.857178,108.519646 102.525581,94.468224 
	C109.164665,84.819412 114.743805,74.805832 115.087769,62.670296 
	C115.118286,61.593624 115.865295,60.537262 116.639771,59.735733 
	C117.000000,91.242287 117.000000,122.484566 117.000000,154.000000 
	C98.313324,154.000000 79.625320,154.000000 60.468658,154.000000 
z"/>
<path fill="currentColor" opacity="1.000000" stroke="none" 
	d="
M1.000000,64.468658 
	C1.661688,64.722160 2.833215,65.394707 2.909041,66.173882 
	C4.165724,79.087364 11.305545,89.347130 18.211304,99.588943 
	C27.539310,113.423172 37.310425,126.959457 46.945358,140.585434 
	C50.292461,145.318985 52.570038,151.054688 58.278107,153.706024 
	C39.056717,154.000000 20.113434,154.000000 1.000000,154.000000 
	C1.000000,124.312653 1.000000,94.624985 1.000000,64.468658 
z"/>
<path fill="currentColor" opacity="1.000000" stroke="none" 
	d="
M117.000000,57.531342 
	C116.333496,56.943073 115.174950,55.931309 115.073196,54.822548 
	C113.073471,33.034054 102.473396,16.947504 82.961685,7.123910 
	C77.840805,4.545691 71.969490,3.457982 66.721405,1.342889 
	C83.598228,1.000000 100.196449,1.000000 117.000000,1.000000 
	C117.000000,19.687059 117.000000,38.374870 117.000000,57.531342 
z"/>
<path fill="currentColor" opacity="1.000000" stroke="none" 
	d="
M49.531342,0.999999 
	C49.554939,1.658247 49.191605,2.813114 48.652809,2.901781 
	C36.618217,4.882257 26.686193,10.609115 18.189140,19.252443 
	C9.777081,27.809315 5.156316,38.130276 2.968940,49.744469 
	C2.775371,50.772251 2.074032,51.704407 1.304264,52.340488 
	C1.000000,35.074718 1.000000,18.149435 1.000000,1.000000 
	C17.020197,1.000000 33.041439,1.000000 49.531342,0.999999 
z"/>
<path fill="white" opacity="1.000000" stroke="none" 
	d="
M63.219528,77.294334 
	C58.848347,83.132027 54.728409,88.703087 50.608471,94.274147 
	C50.023834,94.005791 49.439198,93.737427 48.854561,93.469070 
	C51.329308,84.570831 53.804058,75.672585 56.482239,66.042877 
	C51.895275,66.042877 48.118298,66.104347 44.345200,66.010208 
	C42.987167,65.976326 41.638474,65.568138 40.285519,65.330772 
	C40.767086,63.827583 40.889812,62.051975 41.789818,60.866447 
	C46.758503,54.321457 51.959007,47.953144 56.995350,41.458588 
	C60.400772,37.067162 63.666584,32.567482 66.994843,28.116222 
	C67.617455,28.328415 68.240067,28.540607 68.862686,28.752798 
	C66.474937,37.531952 64.087196,46.311104 61.552559,55.630363 
	C67.452194,55.941448 72.651657,56.215611 77.851120,56.489777 
	C77.995483,57.039436 78.139839,57.589096 78.284203,58.138752 
	C73.346390,64.435074 68.408577,70.731384 63.219528,77.294334 
z"/>
</svg>